<svg width="16" height="14" viewBox="0 0 16 14" fill="none" xmlns="http://www.w3.org/2000/svg">
<path fill-rule="evenodd" clip-rule="evenodd" d="M8 12.6686C4.48125 9.39555 1.125 6.584 1.125 4.15832C1.125 1.91818 3.0425 1.09091 4.42563 1.09091C5.24563 1.09091 7.02 1.38695 8 3.72459C8.99375 1.37986 10.79 1.09682 11.5787 1.09682C13.1663 1.09682 14.875 2.05468 14.875 4.15832C14.875 6.56273 11.665 9.25491 8 12.6686ZM11.5787 0.505909C10.2019 0.505909 8.8 1.12164 8 2.41927C7.19688 1.11573 5.79875 0.5 4.42563 0.5C2.43625 0.5 0.5 1.79232 0.5 4.15832C0.5 6.91255 3.98187 9.73 8 13.5C12.0188 9.73 15.5 6.91255 15.5 4.15832C15.5 1.78818 13.5656 0.505909 11.5787 0.505909Z" fill="white"/>
</svg>
