<svg width="15" height="14" viewBox="0 0 15 14" fill="none" xmlns="http://www.w3.org/2000/svg">
<path fill-rule="evenodd" clip-rule="evenodd" d="M7.5 12.6346C3.98125 9.36159 0.625 6.55005 0.625 4.12437C0.625 1.88423 2.5425 1.05696 3.92563 1.05696C4.74563 1.05696 6.52 1.353 7.5 3.69064C8.49375 1.34591 10.29 1.06287 11.0787 1.06287C12.6663 1.06287 14.375 2.02073 14.375 4.12437C14.375 6.52878 11.165 9.22096 7.5 12.6346ZM11.0787 0.471958C9.70187 0.471958 8.3 1.08769 7.5 2.38532C6.69688 1.08178 5.29875 0.466049 3.92563 0.466049C1.93625 0.466049 0 1.75837 0 4.12437C0 6.87859 3.48187 9.69605 7.5 13.466C11.5188 9.69605 15 6.87859 15 4.12437C15 1.75423 13.0656 0.471958 11.0787 0.471958Z" fill="#C1C8D9"/>
</svg>
