<svg width="19" height="13" viewBox="0 0 19 13" fill="none" xmlns="http://www.w3.org/2000/svg">
<path fill-rule="evenodd" clip-rule="evenodd" d="M1 1H18V2.88651L9.90967 6.37407C9.78599 6.42739 9.64602 6.42855 9.52147 6.3773L1 2.87086L1 1ZM1 4L9.14094 7.30207C9.5146 7.45582 9.93448 7.45233 10.3055 7.29238L18 3.93618V12H1L1 4ZM19 3.5V1C19 0.447715 18.5523 0 18 0H1C0.447715 0 0 0.447715 0 1V3.5V12C0 12.5523 0.447715 13 1 13H18C18.5523 13 19 12.5523 19 12V3.5Z" fill="black"/>
<path fill-rule="evenodd" clip-rule="evenodd" d="M1 1H18V2.88651L9.90967 6.37407C9.78599 6.42739 9.64602 6.42855 9.52147 6.3773L1 2.87086L1 1ZM1 4L9.14094 7.30207C9.5146 7.45582 9.93448 7.45233 10.3055 7.29238L18 3.93618V12H1L1 4ZM19 3.5V1C19 0.447715 18.5523 0 18 0H1C0.447715 0 0 0.447715 0 1V3.5V12C0 12.5523 0.447715 13 1 13H18C18.5523 13 19 12.5523 19 12V3.5Z" fill="url(#paint0_linear_220_433)"/>
<defs>
<linearGradient id="paint0_linear_220_433" x1="-15.9599" y1="5.99998" x2="24.519" y2="7.66297" gradientUnits="userSpaceOnUse">
<stop stop-color="#00FFA3"/>
<stop offset="1" stop-color="#0052C4"/>
</linearGradient>
</defs>
</svg>
