<svg width="18" height="18" viewBox="0 0 18 18" fill="none" xmlns="http://www.w3.org/2000/svg">
<path d="M6 8.85714L8.08333 11L11 8" stroke="black" stroke-linecap="round"/>
<path d="M6 8.85714L8.08333 11L11 8" stroke="url(#paint0_linear_220_461)" stroke-linecap="round"/>
<path fill-rule="evenodd" clip-rule="evenodd" d="M8.64595 0.0115252C8.8112 0.0454728 8.95942 0.153076 9.03894 0.316494C9.08631 0.413821 9.22896 0.594101 9.49725 0.83819C9.75187 1.06984 10.0772 1.32126 10.4319 1.56437C11.1532 2.05865 11.9291 2.47314 12.4062 2.62171C12.8992 2.77519 13.6574 2.87989 14.4393 2.94433C15.2098 3.00784 15.9586 3.02897 16.4081 3.02897H17.0072L16.9695 3.62682C16.9304 4.24846 16.8485 5.25407 16.7293 6.25923C16.6117 7.25126 16.4529 8.28878 16.2512 8.9483C16.2057 9.09694 16.1599 9.25137 16.1125 9.41099L16.1124 9.4114C15.6859 10.8486 15.1345 12.7068 13.5978 14.5524C12.8868 15.4062 11.8156 16.1489 10.8883 16.7166C10.4186 17.0042 9.97184 17.255 9.61013 17.4577C9.23274 17.6693 8.98073 17.8109 8.85589 17.8983C8.75745 17.9673 8.64459 18.0003 8.53289 18.0002C8.42118 18.0003 8.30832 17.9673 8.20988 17.8983C8.08504 17.8109 7.83303 17.6693 7.45564 17.4577C7.09393 17.255 6.64718 17.0042 6.17752 16.7166C5.25017 16.1489 4.17898 15.4062 3.46801 14.5524C1.93128 12.7068 1.37985 10.8486 0.953367 9.4114L0.953319 9.41124C0.905925 9.25153 0.860074 9.09702 0.814585 8.9483C0.612849 8.28878 0.454027 7.25126 0.336449 6.25923C0.217315 5.25407 0.135392 4.24846 0.096244 3.62682L0.0585938 3.02897H0.657631C1.10715 3.02897 1.85598 3.00784 2.6265 2.94433C3.40842 2.87989 4.16657 2.77519 4.65952 2.62171C5.13668 2.47314 5.9126 2.05865 6.63385 1.56437C6.9886 1.32126 7.3139 1.06984 7.56852 0.83819C7.83681 0.594101 7.97947 0.413821 8.02683 0.316494C8.10635 0.153076 8.25457 0.0454728 8.41982 0.0115252C8.49334 -0.00357876 8.57024 -0.00410248 8.64595 0.0115252ZM8.53289 16.7753C8.67421 16.6926 8.83688 16.6014 9.00762 16.5058L9.00769 16.5057L9.06012 16.4764C9.42222 16.2734 9.85175 16.0321 10.3008 15.7572C11.211 15.1999 12.1471 14.5363 12.7332 13.8325C14.1151 12.173 14.6059 10.5262 15.0341 9.08921C15.0816 8.92988 15.1283 8.77314 15.1754 8.61924C15.3442 8.06722 15.4942 7.12157 15.6121 6.12682C15.6959 5.42006 15.7609 4.71166 15.805 4.14481C15.3799 4.13295 14.8686 4.10853 14.3469 4.06553C13.5538 4.00017 12.6906 3.88852 12.0718 3.69585C11.4372 3.49826 10.5532 3.01131 9.79596 2.49237C9.41147 2.22887 9.04288 1.94573 8.74017 1.67033C8.66984 1.60634 8.60017 1.54021 8.53289 1.47245C8.46561 1.54021 8.39593 1.60634 8.3256 1.67033C8.02289 1.94573 7.65431 2.22887 7.26981 2.49237C6.51257 3.01131 5.62857 3.49826 4.99396 3.69585C4.37516 3.88852 3.51198 4.00017 2.71891 4.06553C2.1972 4.10853 1.68586 4.13295 1.26077 4.14481C1.30483 4.71166 1.36986 5.42006 1.45363 6.12682C1.57153 7.12157 1.72153 8.06722 1.89038 8.61924C1.93746 8.77314 1.98417 8.92988 2.03165 9.08921C2.4599 10.5262 2.95068 12.173 4.33254 13.8325C4.91863 14.5363 5.85478 15.1999 6.76494 15.7572C7.21402 16.0321 7.64355 16.2734 8.00565 16.4764L8.05808 16.5057L8.05814 16.5058C8.22888 16.6014 8.39157 16.6926 8.53289 16.7753Z" fill="black"/>
<path fill-rule="evenodd" clip-rule="evenodd" d="M8.64595 0.0115252C8.8112 0.0454728 8.95942 0.153076 9.03894 0.316494C9.08631 0.413821 9.22896 0.594101 9.49725 0.83819C9.75187 1.06984 10.0772 1.32126 10.4319 1.56437C11.1532 2.05865 11.9291 2.47314 12.4062 2.62171C12.8992 2.77519 13.6574 2.87989 14.4393 2.94433C15.2098 3.00784 15.9586 3.02897 16.4081 3.02897H17.0072L16.9695 3.62682C16.9304 4.24846 16.8485 5.25407 16.7293 6.25923C16.6117 7.25126 16.4529 8.28878 16.2512 8.9483C16.2057 9.09694 16.1599 9.25137 16.1125 9.41099L16.1124 9.4114C15.6859 10.8486 15.1345 12.7068 13.5978 14.5524C12.8868 15.4062 11.8156 16.1489 10.8883 16.7166C10.4186 17.0042 9.97184 17.255 9.61013 17.4577C9.23274 17.6693 8.98073 17.8109 8.85589 17.8983C8.75745 17.9673 8.64459 18.0003 8.53289 18.0002C8.42118 18.0003 8.30832 17.9673 8.20988 17.8983C8.08504 17.8109 7.83303 17.6693 7.45564 17.4577C7.09393 17.255 6.64718 17.0042 6.17752 16.7166C5.25017 16.1489 4.17898 15.4062 3.46801 14.5524C1.93128 12.7068 1.37985 10.8486 0.953367 9.4114L0.953319 9.41124C0.905925 9.25153 0.860074 9.09702 0.814585 8.9483C0.612849 8.28878 0.454027 7.25126 0.336449 6.25923C0.217315 5.25407 0.135392 4.24846 0.096244 3.62682L0.0585938 3.02897H0.657631C1.10715 3.02897 1.85598 3.00784 2.6265 2.94433C3.40842 2.87989 4.16657 2.77519 4.65952 2.62171C5.13668 2.47314 5.9126 2.05865 6.63385 1.56437C6.9886 1.32126 7.3139 1.06984 7.56852 0.83819C7.83681 0.594101 7.97947 0.413821 8.02683 0.316494C8.10635 0.153076 8.25457 0.0454728 8.41982 0.0115252C8.49334 -0.00357876 8.57024 -0.00410248 8.64595 0.0115252ZM8.53289 16.7753C8.67421 16.6926 8.83688 16.6014 9.00762 16.5058L9.00769 16.5057L9.06012 16.4764C9.42222 16.2734 9.85175 16.0321 10.3008 15.7572C11.211 15.1999 12.1471 14.5363 12.7332 13.8325C14.1151 12.173 14.6059 10.5262 15.0341 9.08921C15.0816 8.92988 15.1283 8.77314 15.1754 8.61924C15.3442 8.06722 15.4942 7.12157 15.6121 6.12682C15.6959 5.42006 15.7609 4.71166 15.805 4.14481C15.3799 4.13295 14.8686 4.10853 14.3469 4.06553C13.5538 4.00017 12.6906 3.88852 12.0718 3.69585C11.4372 3.49826 10.5532 3.01131 9.79596 2.49237C9.41147 2.22887 9.04288 1.94573 8.74017 1.67033C8.66984 1.60634 8.60017 1.54021 8.53289 1.47245C8.46561 1.54021 8.39593 1.60634 8.3256 1.67033C8.02289 1.94573 7.65431 2.22887 7.26981 2.49237C6.51257 3.01131 5.62857 3.49826 4.99396 3.69585C4.37516 3.88852 3.51198 4.00017 2.71891 4.06553C2.1972 4.10853 1.68586 4.13295 1.26077 4.14481C1.30483 4.71166 1.36986 5.42006 1.45363 6.12682C1.57153 7.12157 1.72153 8.06722 1.89038 8.61924C1.93746 8.77314 1.98417 8.92988 2.03165 9.08921C2.4599 10.5262 2.95068 12.173 4.33254 13.8325C4.91863 14.5363 5.85478 15.1999 6.76494 15.7572C7.21402 16.0321 7.64355 16.2734 8.00565 16.4764L8.05808 16.5057L8.05814 16.5058C8.22888 16.6014 8.39157 16.6926 8.53289 16.7753Z" fill="url(#paint1_linear_220_461)"/>
<defs>
<linearGradient id="paint0_linear_220_461" x1="-2.81929e-06" y1="3.50001" x2="17.5716" y2="14.0479" gradientUnits="userSpaceOnUse">
<stop stop-color="#00FFA3"/>
<stop offset="1" stop-color="#0052C4"/>
</linearGradient>
<linearGradient id="paint1_linear_220_461" x1="-8.37891" y1="-3.37499" x2="9.29112" y2="23.1006" gradientUnits="userSpaceOnUse">
<stop stop-color="#00FFA3"/>
<stop offset="1" stop-color="#0052C4"/>
</linearGradient>
</defs>
</svg>
