<svg width="16" height="19" viewBox="0 0 16 19" fill="none" xmlns="http://www.w3.org/2000/svg">
<path d="M4 4H6" stroke="black" stroke-linecap="round"/>
<path d="M4 4H6" stroke="url(#paint0_linear_220_473)" stroke-linecap="round"/>
<path d="M4 4H6" stroke="url(#paint1_linear_220_473)" stroke-linecap="round"/>
<path d="M4 7H6" stroke="black" stroke-linecap="round"/>
<path d="M4 7H6" stroke="url(#paint2_linear_220_473)" stroke-linecap="round"/>
<path d="M4 7H6" stroke="url(#paint3_linear_220_473)" stroke-linecap="round"/>
<path d="M4 10H6" stroke="black" stroke-linecap="round"/>
<path d="M4 10H6" stroke="url(#paint4_linear_220_473)" stroke-linecap="round"/>
<path d="M4 10H6" stroke="url(#paint5_linear_220_473)" stroke-linecap="round"/>
<path d="M10 4H12" stroke="black" stroke-linecap="round"/>
<path d="M10 4H12" stroke="url(#paint6_linear_220_473)" stroke-linecap="round"/>
<path d="M10 4H12" stroke="url(#paint7_linear_220_473)" stroke-linecap="round"/>
<path d="M10 7H12" stroke="black" stroke-linecap="round"/>
<path d="M10 7H12" stroke="url(#paint8_linear_220_473)" stroke-linecap="round"/>
<path d="M10 7H12" stroke="url(#paint9_linear_220_473)" stroke-linecap="round"/>
<path d="M10 10H12" stroke="black" stroke-linecap="round"/>
<path d="M10 10H12" stroke="url(#paint10_linear_220_473)" stroke-linecap="round"/>
<path d="M10 10H12" stroke="url(#paint11_linear_220_473)" stroke-linecap="round"/>
<path fill-rule="evenodd" clip-rule="evenodd" d="M1 1H15V18H11V14C11 13.4477 10.5522 13 10 13H6C5.44775 13 5 13.4477 5 14V18H1V1ZM6 19H1C0.447754 19 0 18.5523 0 18V1C0 0.447693 0.447754 0 1 0H15C15.5522 0 16 0.447693 16 1V18C16 18.5523 15.5522 19 15 19H10H6Z" fill="#D9D9D9"/>
<path fill-rule="evenodd" clip-rule="evenodd" d="M1 1H15V18H11V14C11 13.4477 10.5522 13 10 13H6C5.44775 13 5 13.4477 5 14V18H1V1ZM6 19H1C0.447754 19 0 18.5523 0 18V1C0 0.447693 0.447754 0 1 0H15C15.5522 0 16 0.447693 16 1V18C16 18.5523 15.5522 19 15 19H10H6Z" fill="url(#paint12_linear_220_473)"/>
<defs>
<linearGradient id="paint0_linear_220_473" x1="2.26566" y1="4.75" x2="6.61963" y2="4.82685" gradientUnits="userSpaceOnUse">
<stop stop-color="#00FFA3"/>
<stop offset="1" stop-color="#0052C4"/>
</linearGradient>
<linearGradient id="paint1_linear_220_473" x1="-10" y1="-5" x2="15.5164" y2="7.98528" gradientUnits="userSpaceOnUse">
<stop stop-color="#00FFA3"/>
<stop offset="1" stop-color="#0052C4"/>
</linearGradient>
<linearGradient id="paint2_linear_220_473" x1="2.26566" y1="7.75" x2="6.61963" y2="7.82685" gradientUnits="userSpaceOnUse">
<stop stop-color="#00FFA3"/>
<stop offset="1" stop-color="#0052C4"/>
</linearGradient>
<linearGradient id="paint3_linear_220_473" x1="-10" y1="-2" x2="15.5164" y2="10.9853" gradientUnits="userSpaceOnUse">
<stop stop-color="#00FFA3"/>
<stop offset="1" stop-color="#0052C4"/>
</linearGradient>
<linearGradient id="paint4_linear_220_473" x1="2.26566" y1="10.75" x2="6.61963" y2="10.8269" gradientUnits="userSpaceOnUse">
<stop stop-color="#00FFA3"/>
<stop offset="1" stop-color="#0052C4"/>
</linearGradient>
<linearGradient id="paint5_linear_220_473" x1="-10" y1="1" x2="15.5164" y2="13.9853" gradientUnits="userSpaceOnUse">
<stop stop-color="#00FFA3"/>
<stop offset="1" stop-color="#0052C4"/>
</linearGradient>
<linearGradient id="paint6_linear_220_473" x1="8.26566" y1="4.75" x2="12.6196" y2="4.82685" gradientUnits="userSpaceOnUse">
<stop stop-color="#00FFA3"/>
<stop offset="1" stop-color="#0052C4"/>
</linearGradient>
<linearGradient id="paint7_linear_220_473" x1="-4" y1="-5" x2="21.5164" y2="7.98528" gradientUnits="userSpaceOnUse">
<stop stop-color="#00FFA3"/>
<stop offset="1" stop-color="#0052C4"/>
</linearGradient>
<linearGradient id="paint8_linear_220_473" x1="8.26566" y1="7.75" x2="12.6196" y2="7.82685" gradientUnits="userSpaceOnUse">
<stop stop-color="#00FFA3"/>
<stop offset="1" stop-color="#0052C4"/>
</linearGradient>
<linearGradient id="paint9_linear_220_473" x1="-4" y1="-2" x2="21.5164" y2="10.9853" gradientUnits="userSpaceOnUse">
<stop stop-color="#00FFA3"/>
<stop offset="1" stop-color="#0052C4"/>
</linearGradient>
<linearGradient id="paint10_linear_220_473" x1="8.26566" y1="10.75" x2="12.6196" y2="10.8269" gradientUnits="userSpaceOnUse">
<stop stop-color="#00FFA3"/>
<stop offset="1" stop-color="#0052C4"/>
</linearGradient>
<linearGradient id="paint11_linear_220_473" x1="-4" y1="1" x2="21.5164" y2="13.9853" gradientUnits="userSpaceOnUse">
<stop stop-color="#00FFA3"/>
<stop offset="1" stop-color="#0052C4"/>
</linearGradient>
<linearGradient id="paint12_linear_220_473" x1="-15.4667" y1="-7" x2="-2.76823" y2="27.9091" gradientUnits="userSpaceOnUse">
<stop stop-color="#00FFA3"/>
<stop offset="1" stop-color="#0052C4"/>
</linearGradient>
</defs>
</svg>
