<svg width="18" height="18" viewBox="0 0 18 18" fill="none" xmlns="http://www.w3.org/2000/svg">
<path fill-rule="evenodd" clip-rule="evenodd" d="M13.5714 7.28571C13.5714 10.7572 10.7572 13.5714 7.28571 13.5714C3.81421 13.5714 1 10.7572 1 7.28571C1 3.81421 3.81421 1 7.28571 1C10.7572 1 13.5714 3.81421 13.5714 7.28571ZM12.3256 12.5471C11.0169 13.801 9.24127 14.5714 7.28571 14.5714C3.26193 14.5714 0 11.3095 0 7.28571C0 3.26193 3.26193 0 7.28571 0C11.3095 0 14.5714 3.26193 14.5714 7.28571C14.5714 8.99373 13.9837 10.5645 12.9994 11.8067L17.8392 16.6465L17.132 17.3536L12.3256 12.5471Z" fill="#646E7B"/>
<path fill-rule="evenodd" clip-rule="evenodd" d="M13.5714 7.28571C13.5714 10.7572 10.7572 13.5714 7.28571 13.5714C3.81421 13.5714 1 10.7572 1 7.28571C1 3.81421 3.81421 1 7.28571 1C10.7572 1 13.5714 3.81421 13.5714 7.28571ZM12.3256 12.5471C11.0169 13.801 9.24127 14.5714 7.28571 14.5714C3.26193 14.5714 0 11.3095 0 7.28571C0 3.26193 3.26193 0 7.28571 0C11.3095 0 14.5714 3.26193 14.5714 7.28571C14.5714 8.99373 13.9837 10.5645 12.9994 11.8067L17.8392 16.6465L17.132 17.3536L12.3256 12.5471Z" fill="url(#paint0_linear_220_455)"/>
<defs>
<linearGradient id="paint0_linear_220_455" x1="-15" y1="-8.99999" x2="23.1471" y2="-2.31657" gradientUnits="userSpaceOnUse">
<stop stop-color="#00FFA3"/>
<stop offset="1" stop-color="#0052C4"/>
</linearGradient>
</defs>
</svg>
