<svg width="17" height="10" viewBox="0 0 17 10" fill="none" xmlns="http://www.w3.org/2000/svg">
<path d="M5.5 0.25C5.36193 0.25 5.25 0.361929 5.25 0.5C5.25 0.638071 5.36193 0.75 5.5 0.75V0.25ZM14.5 0.5H14.75V0.25H14.5V0.5ZM14.3232 8.67678C14.4209 8.77441 14.5791 8.77441 14.6768 8.67678L16.2678 7.08579C16.3654 6.98816 16.3654 6.82986 16.2678 6.73223C16.1701 6.6346 16.0118 6.6346 15.9142 6.73223L14.5 8.14645L13.0858 6.73223C12.9882 6.6346 12.8299 6.6346 12.7322 6.73223C12.6346 6.82986 12.6346 6.98816 12.7322 7.08579L14.3232 8.67678ZM5.5 0.75H14.5V0.25H5.5V0.75ZM14.25 0.5V8.5H14.75V0.5H14.25Z" fill="white"/>
<path d="M11.5 9.75C11.6381 9.75 11.75 9.63807 11.75 9.5C11.75 9.36193 11.6381 9.25 11.5 9.25L11.5 9.75ZM2.5 9.5L2.25 9.5L2.25 9.75L2.5 9.75L2.5 9.5ZM2.67678 1.32322C2.57915 1.22559 2.42085 1.22559 2.32322 1.32322L0.732233 2.91421C0.634602 3.01185 0.634602 3.17014 0.732233 3.26777C0.829864 3.3654 0.988155 3.3654 1.08579 3.26777L2.5 1.85355L3.91421 3.26777C4.01184 3.3654 4.17014 3.3654 4.26777 3.26777C4.3654 3.17014 4.3654 3.01185 4.26777 2.91421L2.67678 1.32322ZM11.5 9.25L2.5 9.25L2.5 9.75L11.5 9.75L11.5 9.25ZM2.75 9.5L2.75 1.5L2.25 1.5L2.25 9.5L2.75 9.5Z" fill="white"/>
</svg>
