<svg width="22" height="13" viewBox="0 0 22 13" fill="none" xmlns="http://www.w3.org/2000/svg">
<path d="M8 0.5C7.72386 0.5 7.5 0.723858 7.5 1C7.5 1.27614 7.72386 1.5 8 1.5V0.5ZM18 1H18.5V0.5H18V1ZM17.6464 11.3536C17.8417 11.5488 18.1583 11.5488 18.3536 11.3536L21.5355 8.17157C21.7308 7.97631 21.7308 7.65973 21.5355 7.46447C21.3403 7.2692 21.0237 7.2692 20.8284 7.46447L18 10.2929L15.1716 7.46447C14.9763 7.2692 14.6597 7.2692 14.4645 7.46447C14.2692 7.65973 14.2692 7.97631 14.4645 8.17157L17.6464 11.3536ZM8 1.5H18V0.5H8V1.5ZM17.5 1V11H18.5V1H17.5Z" fill="#C1C8D9"/>
<path d="M15 12.5C15.2761 12.5 15.5 12.2761 15.5 12C15.5 11.7239 15.2761 11.5 15 11.5L15 12.5ZM4 12L3.5 12L3.5 12.5L4 12.5L4 12ZM4.35355 2.64645C4.15829 2.45118 3.84171 2.45118 3.64645 2.64645L0.464466 5.82843C0.269204 6.02369 0.269203 6.34027 0.464466 6.53553C0.659728 6.7308 0.97631 6.7308 1.17157 6.53553L4 3.70711L6.82843 6.53553C7.02369 6.7308 7.34027 6.7308 7.53553 6.53553C7.7308 6.34027 7.7308 6.02369 7.53553 5.82843L4.35355 2.64645ZM15 11.5L4 11.5L4 12.5L15 12.5L15 11.5ZM4.5 12L4.5 3L3.5 3L3.5 12L4.5 12Z" fill="#C1C8D9"/>
</svg>
