<svg width="15" height="12" viewBox="0 0 15 12" fill="none" xmlns="http://www.w3.org/2000/svg">
<path d="M1 0.5C0.723858 0.5 0.5 0.723858 0.5 1C0.5 1.27614 0.723858 1.5 1 1.5V0.5ZM11 1H11.5V0.5H11V1ZM10.6464 11.3536C10.8417 11.5488 11.1583 11.5488 11.3536 11.3536L14.5355 8.17157C14.7308 7.97631 14.7308 7.65973 14.5355 7.46447C14.3403 7.2692 14.0237 7.2692 13.8284 7.46447L11 10.2929L8.17157 7.46447C7.97631 7.2692 7.65973 7.2692 7.46447 7.46447C7.2692 7.65973 7.2692 7.97631 7.46447 8.17157L10.6464 11.3536ZM1 1.5H11V0.5H1V1.5ZM10.5 1V11H11.5V1H10.5Z" fill="white"/>
</svg>
